# xmcd
#
# Track frame offsets:
#	150
#	16528
#	35723
#	48970
#	68043
#	81229
#	93429
#	105594
#	120502
#	133043
#	142979
#	158542
#	171614
#	188801
#	197862
#	211083
#	224659
#	236726
#	249781
#	261012
#	275758
#	292446
#	305305
#	315111
#
# Disc length: 4394 seconds
#
# Revision: 1
# Processed by: cddbd v1.5.2PL0 Copyright (c) Steve Scherf et al.
# Submitted via: audiograbber 1.83.01
#
DISCID=59112818
DTITLE=Vários - Sertanejas Eternas
DYEAR=2003
DGENRE=Sertaneja
TTITLE0=pombinha branca - Tibagi and Miltinho
TTITLE1=meu martirio - Mococa and Moraci
TTITLE2=a grande verdade - Vieira and Vieirinha
TTITLE3=terra roxa - Garcia and Zé Matão
TTITLE4=moreninha linda - Chitão and Xororó
TTITLE5=mocinhas da cidade - Nestor and Nestorzinho
TTITLE6=hoje é meu aniversário - Tonico and Tinoco
TTITLE7=canoeiro - Zé Carreiro and Carreirinho
TTITLE8=menino boiadeiro - Abel and Caim
TTITLE9=galopeira - Pedro Bento and Zé da Estrada
TTITLE10=cabecinha no ombro - Duo Guarujá
TTITLE11=meu passado - Cascatinha and Inhana
TTITLE12=mágoas de boiadeiro - Tibagi and Niltinho
TTITLE13=tira o olho gordo - Leoncio and Leonel
TTITLE14=o menino da porteira - Jeca Mineiro and Luizinho
TTITLE15=catarina - Trio Mineiro
TTITLE16=casinha pequenina - Caçula and Marinheiro
TTITLE17=castigo do fazendeiro - Jaco and Jacozinho
TTITLE18=trepei na roseira - Raul Rorres and Florencio
TTITLE19=brasil gigante - Belmiro and Bueno
TTITLE20=percorrendo são paulo - Pirapó and Cambará
TTITLE21=velho amor - Silveira and Silveirinha
TTITLE22=não beba mais não - Jeca Mineiro and Luizinho
TTITLE23=couro de boi - Tibagi and Niltinho
EXTD=
EXTT0=
EXTT1=
EXTT2=
EXTT3=
EXTT4=
EXTT5=
EXTT6=
EXTT7=
EXTT8=
EXTT9=
EXTT10=
EXTT11=
EXTT12=
EXTT13=
EXTT14=
EXTT15=
EXTT16=
EXTT17=
EXTT18=
EXTT19=
EXTT20=
EXTT21=
EXTT22=
EXTT23=
PLAYORDER=
